# xmcd CD database file
#
# Track frame offsets:
#	150
#	9497
#	22585
#	38922
#	52335
#	65875
#	77717
#	90422
#	103405
#	114067
#	123985
#	135787
#
# Disc length: 1971 seconds
#
# Revision: 0
# Processed by: cddbd v1.5.1PL0 Copyright (c) Steve Scherf et al.
# Submitted via: CDex 1.50
#
DISCID=9007b10c
DTITLE=Hal Schaefer - Just too much
DYEAR=1954
DGENRE=Jazz
TTITLE0=All the things you are
TTITLE1=I'll remember April
TTITLE2=You are too beautiful
TTITLE3=Between the devil and the deep blue sea
TTITLE4=I'm glad there is you
TTITLE5=The song is you
TTITLE6=Thou swell
TTITLE7=St.Louis Blues
TTITLE8=Yes
TTITLE9=Have you met Miss Jones?
TTITLE10=You stepped out of a dream
TTITLE11=Montevideo
EXTD=YEAR: 1954
EXTT0=
EXTT1=
EXTT2=
EXTT3=
EXTT4=
EXTT5=
EXTT6=
EXTT7=
EXTT8=
EXTT9=
EXTT10=
EXTT11=
PLAYORDER=
